<?xml version="1.0" encoding="UTF-8" standalone="no"?>
<!-- Created with Inkscape (http://www.inkscape.org/) -->

<svg
   xmlns:dc="http://purl.org/dc/elements/1.1/"
   xmlns:cc="http://creativecommons.org/ns#"
   xmlns:rdf="http://www.w3.org/1999/02/22-rdf-syntax-ns#"
   xmlns:svg="http://www.w3.org/2000/svg"
   xmlns="http://www.w3.org/2000/svg"
   xmlns:sodipodi="http://sodipodi.sourceforge.net/DTD/sodipodi-0.dtd"
   xmlns:inkscape="http://www.inkscape.org/namespaces/inkscape"
   width="97.186188mm"
   height="97.186188mm"
   viewBox="0 0 344.36051 344.36051"
   id="svg4149"
   version="1.1"
   inkscape:version="0.91 r13725"
   sodipodi:docname="generic_processor.svg">
  <title
     id="title5063">Ingestion processor</title>
  <defs
     id="defs4151" />
  <sodipodi:namedview
     id="base"
     pagecolor="#ffffff"
     bordercolor="#666666"
     borderopacity="1.0"
     inkscape:pageopacity="0.0"
     inkscape:pageshadow="2"
     inkscape:zoom="0.7071068"
     inkscape:cx="73.627725"
     inkscape:cy="-56.714252"
     inkscape:document-units="px"
     inkscape:current-layer="layer4"
     showgrid="false"
     inkscape:window-width="1920"
     inkscape:window-height="1176"
     inkscape:window-x="0"
     inkscape:window-y="24"
     inkscape:window-maximized="1"
     fit-margin-top="0"
     fit-margin-left="0"
     fit-margin-right="0"
     fit-margin-bottom="0" />
  <metadata
     id="metadata4154">
    <rdf:RDF>
      <cc:Work
         rdf:about="">
        <dc:format>image/svg+xml</dc:format>
        <dc:type
           rdf:resource="http://purl.org/dc/dcmitype/StillImage" />
        <dc:title>Ingestion processor</dc:title>
        <dc:creator>
          <cc:Agent>
            <dc:title>L.Briais</dc:title>
          </cc:Agent>
        </dc:creator>
        <dc:rights>
          <cc:Agent>
            <dc:title>©2016 Brewlabs</dc:title>
          </cc:Agent>
        </dc:rights>
      </cc:Work>
    </rdf:RDF>
  </metadata>
  <g
     inkscape:label="Processor"
     inkscape:groupmode="layer"
     id="layer1"
     transform="translate(-159.65486,-173.58025)"
     style="display:inline"
     sodipodi:insensitive="true">
    <rect
       style="color:#000000;clip-rule:nonzero;display:inline;overflow:visible;visibility:visible;opacity:1;isolation:auto;mix-blend-mode:normal;color-interpolation:sRGB;color-interpolation-filters:linearRGB;solid-color:#000000;solid-opacity:1;fill:none;fill-opacity:1;fill-rule:evenodd;stroke:#728da7;stroke-width:10;stroke-linecap:round;stroke-linejoin:round;stroke-miterlimit:4;stroke-dasharray:none;stroke-dashoffset:0;stroke-opacity:1;color-rendering:auto;image-rendering:auto;shape-rendering:auto;text-rendering:auto;enable-background:accumulate"
       id="rect4717"
       width="334.3605"
       height="334.3605"
       x="164.65486"
       y="178.58025"
       ry="33.822701" />
  </g>
  <g
     inkscape:groupmode="layer"
     id="layer4"
     inkscape:label="Gears"
     transform="translate(-1.4501953e-6,4.0283203e-6)">
    <path
       id="path5"
       d="m 252.99942,158.06055 0,-0.18984 c -2.84756,-3.79675 -6.26463,-7.02398 -10.25121,-10.06138 l 0,0.18984 c -3.22724,2.46788 -6.45447,5.12561 -9.49187,7.78333 -1.32886,-0.75935 -2.46789,-1.32886 -3.60691,-1.89838 -1.5187,-0.75934 -3.0374,-1.51869 -4.74593,-1.89837 -0.56952,-0.18984 -1.13903,-0.37967 -1.70854,-0.37967 -0.37967,-4.17643 -0.75935,-8.35285 -1.32886,-12.52927 -1.89837,-0.37967 -3.79675,-0.37967 -5.88496,-0.56951 l -1.5187,0 -1.5187,0 c -1.89837,0.18984 -3.60691,0.18984 -5.31544,0.56951 -0.56951,3.98659 -0.94919,8.16301 -1.13903,12.33943 -0.75935,0 -1.32886,0.18984 -2.08821,0.37967 -0.18983,0 -0.37967,0 -0.56951,0.18984 -1.5187,0.37968 -3.0374,1.13903 -4.55609,1.89837 -1.32887,0.56952 -2.46789,1.13903 -3.60691,1.89838 -3.22724,-2.65772 -6.26464,-5.12561 -9.49187,-7.78333 l -0.18984,-0.18984 c -0.75935,0.56951 -1.5187,1.13902 -2.08821,1.70854 -1.32886,0.94918 -2.46788,2.08821 -3.41707,3.22723 -1.70854,1.5187 -3.0374,3.41707 -4.5561,5.31545 l 0.18984,0 c 2.46789,3.22723 5.12561,6.26463 7.78333,9.49186 -0.75935,1.13903 -1.5187,2.46789 -2.08821,3.60691 -0.75935,1.5187 -1.32886,3.22724 -1.70854,4.74594 -0.37967,0.75935 -0.56951,1.51869 -0.56951,2.08821 -4.17642,0.37967 -8.35284,0.75935 -12.33943,1.32886 -0.37967,1.89837 -0.56951,3.79674 -0.56951,5.88496 0,2.84756 0.18984,5.69512 0.75935,8.35284 3.98659,0.37967 7.97317,0.75935 12.14959,1.13902 0,0.75935 0.18984,1.5187 0.56951,2.08821 0.37968,1.70854 0.94919,3.22724 1.70854,4.93577 0.75935,1.32887 1.32886,2.65773 2.27805,3.79675 -2.65772,3.22724 -5.31545,6.26463 -7.78333,9.49187 2.84756,3.98658 6.26463,7.40365 10.25121,10.25121 l 0,-0.18983 c 3.0374,-2.46789 6.26464,-5.12561 9.30203,-7.78333 l 0.18984,0 c 0.94919,0.56951 2.08821,1.13902 3.0374,1.70853 1.70853,0.75935 3.60691,1.5187 5.31544,1.89838 0.75935,0.18983 1.32886,0.37967 1.89838,0.56951 0.37967,3.98658 0.75935,8.163 1.32886,12.33942 1.70853,0.18984 3.41707,0.37968 5.31544,0.37968 l 2.84756,0 c 2.08821,0 4.17643,-0.18984 6.26464,-0.56951 0.37967,-3.98659 0.75935,-8.16301 1.13902,-12.33943 0.56951,-0.18984 1.13902,-0.37967 1.70854,-0.56951 1.70853,-0.37968 3.22723,-0.94919 4.74593,-1.70854 1.32886,-0.56951 2.65772,-1.32886 3.98658,-2.27805 0,0.18984 0,0.18984 0.18984,0.18984 3.0374,2.65772 6.26463,5.31545 9.49187,7.78333 0.56951,-0.37967 1.13902,-0.75935 1.89837,-1.32886 1.13903,-0.94919 2.27805,-2.08821 3.22724,-3.22723 1.70853,-1.70854 3.41707,-3.60691 4.93577,-5.69512 -2.65773,-3.22724 -5.31545,-6.45447 -7.97317,-9.49187 l 0,-0.18984 c 0.56951,-0.94919 1.13902,-2.08821 1.70853,-3.22723 0.56952,-1.5187 1.32887,-3.0374 1.70854,-4.5561 0,-0.18984 0,-0.37967 0.18984,-0.37967 0,-0.75935 0.18984,-1.32887 0.37967,-1.70854 4.17642,-0.37967 8.35285,-0.75935 12.33943,-1.13902 0.37967,-1.89838 0.37967,-3.79675 0.56951,-5.69512 l 0,-1.70854 0,-1.5187 c -0.18984,-1.89837 -0.18984,-3.79675 -0.56951,-5.69512 -3.98658,-0.37967 -8.16301,-0.75935 -12.33943,-1.13902 -0.18983,-0.56952 -0.37967,-1.13903 -0.37967,-1.70854 -0.56951,-1.70854 -1.13903,-3.41707 -1.89838,-5.12561 -0.56951,-1.13902 -1.32886,-2.46788 -1.89837,-3.60691 2.46789,-3.03739 5.12561,-6.26463 7.78333,-9.49186 z m -50.68657,15.7565 c 3.41707,-3.60691 7.5935,-5.31545 12.33943,-5.12561 4.93577,-0.18984 8.92235,1.5187 12.52926,5.12561 3.41708,3.41707 5.12561,7.59349 5.12561,12.33942 0,4.93577 -1.70853,8.92236 -5.12561,12.52927 -3.60691,3.41707 -7.59349,5.1256 -12.52926,5.1256 -4.74593,0 -8.92236,-1.70853 -12.33943,-5.1256 -3.41707,-3.60691 -5.12561,-7.5935 -5.12561,-12.52927 0,-4.74593 1.70854,-8.92235 5.12561,-12.33942 z"
       inkscape:connector-curvature="0"
       style="fill:#7785ae;fill-opacity:1" />
    <path
       id="path7"
       d="m 214.84212,171.15932 c -4.17642,0 -7.5935,1.5187 -10.63089,4.36626 -2.84756,3.0374 -4.36626,6.45447 -4.36626,10.63089 0,4.17642 1.5187,7.5935 4.36626,10.63089 3.03739,3.0374 6.45447,4.5561 10.63089,4.5561 4.17642,0 7.59349,-1.5187 10.63089,-4.5561 3.0374,-3.03739 4.36626,-6.45447 4.36626,-10.63089 0,-4.17642 -1.32886,-7.59349 -4.36626,-10.63089 -3.0374,-2.84756 -6.45447,-4.36626 -10.63089,-4.36626 z m -7.97317,7.02398 c 2.27805,-2.08821 4.93577,-3.22723 7.97317,-3.22723 3.03739,0 5.69512,1.13902 7.97317,3.22723 2.27804,2.27805 3.22723,4.74594 3.22723,7.97317 0,3.22724 -0.94919,5.88496 -3.22723,7.97317 -2.27805,2.27805 -4.93578,3.41707 -7.97317,3.41707 -3.0374,0 -5.69512,-1.13902 -7.97317,-3.41707 -2.08821,-2.08821 -3.22724,-4.74593 -3.22724,-7.97317 0,-3.0374 1.13903,-5.69512 3.22724,-7.97317 z"
       inkscape:connector-curvature="0"
       style="fill:#7785ae;fill-opacity:1" />
    <path
       id="path9"
       d="m 166.05392,202.29265 c -0.75935,-0.37968 -1.32886,-0.56952 -1.89837,-0.56952 -2.27805,-0.56951 -4.5561,-0.94918 -6.83415,-1.32886 -2.08821,5.12561 -3.79674,10.06138 -5.50528,14.99715 l -2.65772,0 -0.75935,0 c -2.27805,0.18984 -4.36626,0.37968 -6.45447,0.75935 -1.70854,0.18984 -3.41707,0.75935 -5.12561,1.32886 -3.0374,-4.36626 -6.26463,-8.73251 -9.30203,-12.90894 l -0.18984,-0.18983 c -1.13902,0.37967 -2.27804,0.75935 -3.22723,1.32886 -1.89837,0.75935 -3.60691,1.70853 -5.31545,2.84756 -2.65772,1.32886 -5.12561,3.0374 -7.40365,5.12561 l 0,0.18983 c 2.27804,4.74594 4.36626,9.49187 6.6443,14.2378 -1.32886,1.32887 -2.46788,2.46789 -3.60691,3.98659 -1.51869,1.5187 -2.84756,3.41707 -3.98658,5.31544 -0.56951,0.75935 -0.94919,1.5187 -1.32886,2.46789 -5.31545,-0.94919 -10.630892,-1.89837 -15.946338,-2.65772 -0.949187,2.27804 -1.898373,4.55609 -2.657723,7.02398 -0.759349,3.79675 -1.518698,7.40365 -1.898373,11.01056 l 14.807314,5.69512 0,2.65773 c 0,2.08821 0.18984,4.36626 0.75935,6.6443 0.18984,1.89838 0.75935,3.79675 1.32886,5.69512 -4.36626,3.0374 -8.542681,6.0748 -12.90894,9.30203 2.278048,5.69512 5.505283,11.01057 9.30203,15.94634 l 0.18984,0 c 4.74593,-2.27805 9.49186,-4.36626 14.42763,-6.64431 1.13903,1.13903 2.27805,2.08821 3.41708,3.22724 1.70853,1.5187 3.79674,2.84756 6.07479,4.17642 0.56951,0.37967 1.32886,0.75935 2.08821,1.32886 -0.94918,5.12561 -1.70853,10.44105 -2.46788,15.7565 2.08821,0.94919 4.17642,1.70854 6.45447,2.27805 0.56951,0.18984 1.70853,0.56951 3.60691,0.94919 2.65772,0.75934 5.31544,1.13902 7.78333,1.51869 2.08821,-5.1256 3.98658,-10.06138 5.69512,-15.18698 l 2.27805,0 0.18983,0 c 2.27805,0 4.36626,-0.18984 6.45447,-0.56952 1.89838,-0.37967 3.79675,-0.94918 5.69512,-1.51869 0,0 0,0.18983 0.18984,0.18983 3.0374,4.36626 6.26463,8.73252 9.30203,13.09878 0.94919,-0.56951 1.89837,-0.94919 2.65772,-1.32886 1.89838,-0.75935 3.60691,-1.70854 5.31545,-2.65772 2.84756,-1.70854 5.50528,-3.60691 7.97317,-5.69512 -2.08821,-4.93578 -4.36626,-9.68171 -6.64431,-14.61748 1.13902,-1.13902 2.08821,-2.27805 3.22723,-3.41707 1.32887,-1.70854 2.65773,-3.60691 3.79675,-5.31545 0,-0.18983 0.18984,-0.37967 0.18984,-0.56951 0.37967,-0.56951 0.75935,-1.32886 1.13902,-1.89837 5.31545,0.94918 10.63089,1.70853 15.94634,2.65772 0.94919,-2.27805 1.70853,-4.5561 2.46788,-7.02398 0.18984,-0.56951 0.37968,-1.13903 0.56952,-1.89838 0.18983,-0.56951 0.18983,-1.13902 0.56951,-1.89837 0.37967,-2.46788 0.94918,-4.93577 1.13902,-7.21382 -4.93577,-2.08821 -10.06138,-3.79674 -14.99715,-5.69512 l 0,-2.27805 c 0,-2.27804 -0.18983,-4.74593 -0.75935,-7.02398 -0.18983,-1.70853 -0.75935,-3.41707 -1.13902,-5.12561 4.36626,-3.03739 8.73252,-6.26463 12.90894,-9.49186 l 0.18984,0 c -2.27805,-5.69512 -5.31545,-11.01057 -9.49187,-15.94634 -4.93577,2.08821 -9.68171,4.36626 -14.42764,6.64431 -1.32886,-1.32886 -2.65772,-2.65772 -3.98658,-3.79675 -1.70854,-1.32886 -3.41708,-2.65772 -5.31545,-3.60691 -0.56951,-0.56951 -1.32886,-0.94919 -1.89837,-1.32886 0.75935,-5.31545 1.70853,-10.63089 2.46788,-15.94634 -2.27805,-0.94918 -4.74593,-1.89837 -7.21382,-2.65772 -0.56951,-0.18984 -1.32886,-0.37967 -1.89837,-0.37967 z m -35.30974,70.99916 c -3.22724,-5.50528 -3.98659,-11.2004 -2.27805,-17.2752 1.5187,-6.07479 5.12561,-10.63089 10.63089,-13.85812 5.31544,-3.0374 11.2004,-3.79675 17.08536,-2.27805 6.07479,1.70854 10.82073,5.12561 13.85812,10.63089 3.22724,5.50528 3.98659,11.2004 2.27805,17.2752 -1.5187,6.07479 -5.12561,10.63089 -10.44105,13.66829 -5.69512,3.22723 -11.39024,3.98658 -17.2752,2.27805 -6.07479,-1.5187 -10.82073,-5.12561 -13.85812,-10.44106 z"
       inkscape:connector-curvature="0"
       style="fill:#7785ae;fill-opacity:1" />
    <path
       id="path11"
       d="m 131.8832,256.9658 c -1.5187,5.12561 -0.94919,10.06138 1.70854,14.61748 l 0.18983,0 c 2.65773,4.74593 6.64431,7.59349 11.76992,9.11219 5.12561,1.32886 10.06138,0.75935 14.80731,-1.89838 4.74593,-2.84756 7.59349,-6.6443 9.11219,-11.76991 l 0,-0.18984 c 1.32886,-5.12561 0.56951,-10.06138 -2.08821,-14.61747 -2.65772,-4.74594 -6.6443,-7.78333 -11.76991,-9.1122 -5.12561,-1.51869 -10.25122,-0.75935 -14.80732,1.89838 -4.74593,2.65772 -7.59349,6.6443 -8.92235,11.95975 z m 11.39024,-7.59349 c 3.60691,-2.08821 7.21382,-2.65773 11.01057,-1.5187 3.79674,0.94918 6.83414,3.22723 8.92235,6.83414 2.08821,3.41707 2.46789,7.21382 1.5187,11.01057 -1.13902,3.79674 -3.41707,6.83414 -6.83414,8.73252 l 0,0.18983 c -3.60691,1.89838 -7.21382,2.46789 -11.01057,1.32886 -3.98658,-0.94918 -6.83414,-3.22723 -8.92236,-6.83414 -1.89837,-3.41707 -2.46788,-7.02398 -1.51869,-11.01057 1.13902,-3.79674 3.41707,-6.6443 6.83414,-8.73251 z"
       inkscape:connector-curvature="0"
       style="fill:#7785ae;fill-opacity:1" />
  </g>
  <g
     inkscape:groupmode="layer"
     id="layer2"
     inkscape:label="Unplugged"
     style="display:none"
     transform="translate(-159.65486,-173.58025)">
    <g
       id="g4329">
      <path
         inkscape:connector-curvature="0"
         id="path4774-5"
         d="m 333.97623,288.06851 c -0.078,-0.75633 0.88781,-11.42535 1.5073,-16.65318 0.70608,-5.9591 3.21583,-16.80417 4.53202,-19.57997 3.16525,-6.68019 5.28849,-6.85099 11.45494,-0.9215 11.79179,11.33876 18.80229,12.11141 23.49427,2.58956 2.14428,-4.35154 4.84185,-16.62999 4.66924,-21.25281 -0.20424,-5.47023 -1.7644,-8.25626 -5.39705,-9.63777 -3.3926,-1.2902 -9.85316,-0.41758 -16.98076,2.29356 -4.63103,1.76153 -6.44598,1.98366 -7.87478,0.96385 -1.3045,-0.93107 -1.75244,-2.14785 -1.94622,-5.28636 -0.3054,-4.94714 3.31146,-17.65617 8.77839,-30.84563 l 2.04911,-4.94365 35.20313,8.14016 c 32.09288,7.42107 35.51234,8.27736 38.70304,9.69019 10.46939,4.63617 18.07945,11.21818 24.07924,20.82623 4.66817,7.47561 7.16938,14.72419 7.95234,23.04621 0.62984,6.6941 0.3978,9.75152 -1.29614,17.07881 -1.70209,7.36244 -2.82323,10.18104 -6.40225,16.09596 -8.43644,13.94254 -23.81287,23.54427 -40.04197,25.00417 -8.78972,0.79071 -6.50785,1.17772 -46.29092,-7.8519 -29.37582,-6.66738 -36.14561,-8.30543 -36.192,-8.75596 z"
         style="color:#000000;clip-rule:nonzero;display:inline;overflow:visible;visibility:visible;opacity:1;isolation:auto;mix-blend-mode:normal;color-interpolation:sRGB;color-interpolation-filters:linearRGB;solid-color:#000000;solid-opacity:1;fill:#e07b7b;fill-opacity:1;fill-rule:evenodd;stroke:none;stroke-width:0.71428573;stroke-linecap:round;stroke-linejoin:round;stroke-miterlimit:4;stroke-dasharray:none;stroke-dashoffset:0;stroke-opacity:1;color-rendering:auto;image-rendering:auto;shape-rendering:auto;text-rendering:auto;enable-background:accumulate" />
      <path
         inkscape:connector-curvature="0"
         id="path4776-4"
         d="m 258.79176,302.51981 c -8.52238,1.05915 -18.72682,-0.39423 -26.97013,-3.84128 -3.42388,-1.43173 -10.13305,-5.4629 -13.05403,-7.84349 -11.52287,-9.39102 -18.75992,-24.13851 -19.37493,-39.48178 -0.73885,-18.43303 8.73661,-36.58976 24.30369,-46.57039 6.85089,-4.39233 7.98475,-4.7794 31.23494,-10.66277 l 21.21327,-5.36784 0.14752,1.56602 c 0.0812,0.8613 0.41442,4.60406 0.74049,8.31729 1.75819,20.01944 5.33687,30.9462 10.39086,31.72639 1.99676,0.30822 3.53975,-0.62934 6.96568,-4.23275 9.09737,-9.56853 15.19919,-12.12198 19.48664,-8.15456 2.6631,2.46438 4.37523,6.3393 6.36704,14.40995 1.38034,5.59567 1.79904,7.97119 1.79691,10.20942 -0.005,6.17135 -1.98997,9.00933 -6.75204,9.65805 -3.10572,0.42313 -8.15165,-0.26969 -12.90219,-1.77145 -5.92658,-1.87358 -6.81336,-2.04006 -8.5751,-1.6098 -2.1896,0.53478 -3.20934,1.92193 -3.55647,4.83799 -0.74716,6.27637 2.369,18.21483 8.94926,34.28594 0.8749,2.13682 1.6344,4.06382 1.68771,4.28217 0.1193,0.48823 -37.75384,9.703 -42.09912,10.24316 z"
         style="color:#000000;clip-rule:nonzero;display:inline;overflow:visible;visibility:visible;opacity:1;isolation:auto;mix-blend-mode:normal;color-interpolation:sRGB;color-interpolation-filters:linearRGB;solid-color:#000000;solid-opacity:1;fill:#e07b7b;fill-opacity:1;fill-rule:evenodd;stroke:#ffffff;stroke-width:0.40601188;stroke-linecap:round;stroke-linejoin:round;stroke-miterlimit:4;stroke-dasharray:none;stroke-dashoffset:0;stroke-opacity:1;color-rendering:auto;image-rendering:auto;shape-rendering:auto;text-rendering:auto;enable-background:accumulate" />
    </g>
  </g>
  <g
     inkscape:groupmode="layer"
     id="layer3"
     inkscape:label="Plugged"
     style="display:none"
     transform="translate(-159.65486,-173.58025)">
    <g
       id="g4820"
       transform="matrix(2.6628431,0,0,2.6628431,-1826.0146,-366.42065)">
      <path
         inkscape:connector-curvature="0"
         id="path4774-5-3"
         d="m 805.10906,249.42288 c -0.0925,-0.27014 -0.6416,-4.2555 -0.85715,-6.2207 -0.24571,-2.24009 -0.24478,-6.42047 0.002,-7.54743 0.59307,-2.71195 1.35549,-2.95404 4.11328,-1.30611 5.27359,3.15128 7.90401,2.84099 8.81532,-1.03982 0.41648,-1.77356 0.36489,-6.49428 -0.0893,-8.17112 -0.53743,-1.98421 -1.34394,-2.87162 -2.78995,-3.06982 -1.35044,-0.1851 -3.64047,0.68066 -6.01905,2.27554 -1.54544,1.03625 -2.19071,1.27105 -2.79976,1.01877 -0.55605,-0.23032 -0.82288,-0.63764 -1.15925,-1.76959 -0.53021,-1.78427 -0.28186,-6.74029 0.60276,-12.02859 l 0.33157,-1.98215 13.56897,6.5e-4 c 12.37012,6.4e-4 13.69369,0.0247 14.98063,0.27174 4.22279,0.81075 7.56398,2.57531 10.57195,5.58328 2.34037,2.34037 3.86867,4.78097 4.85908,7.75967 0.79668,2.39601 0.9704,3.53432 0.9704,6.35857 0,2.83781 -0.17179,3.96393 -0.98099,6.43087 -1.90744,5.81502 -6.7213,10.62883 -12.53585,12.53577 -3.14917,1.0328 -2.28153,0.98139 -17.60146,1.0427 -11.31224,0.0453 -13.92778,0.0186 -13.98287,-0.14232 z"
         style="color:#000000;clip-rule:nonzero;display:inline;overflow:visible;visibility:visible;opacity:1;isolation:auto;mix-blend-mode:normal;color-interpolation:sRGB;color-interpolation-filters:linearRGB;solid-color:#000000;solid-opacity:1;fill:#9cb9a7;fill-opacity:1;fill-rule:evenodd;stroke:none;stroke-width:0.71428573;stroke-linecap:round;stroke-linejoin:round;stroke-miterlimit:4;stroke-dasharray:none;stroke-dashoffset:0;stroke-opacity:1;color-rendering:auto;image-rendering:auto;shape-rendering:auto;text-rendering:auto;enable-background:accumulate" />
      <path
         inkscape:connector-curvature="0"
         id="path4776-4-4"
         d="m 788.0899,249.48771 c -3.20346,-0.37294 -6.79671,-1.81236 -9.49687,-3.80436 -1.12153,-0.82738 -3.20996,-2.89579 -4.06348,-4.02452 -3.367,-4.45267 -4.69321,-10.4776 -3.55051,-16.12986 1.37281,-6.79049 6.44734,-12.5701 13.01572,-14.82419 2.89066,-0.99199 3.3388,-1.03218 12.34504,-1.10696 l 8.2172,-0.0682 -0.0857,0.58445 c -0.0471,0.32145 -0.25903,1.71656 -0.47091,3.10025 -1.14229,7.46007 -0.81029,11.76518 0.96397,12.5001 0.70099,0.29036 1.34743,0.0858 2.91832,-0.92354 4.17141,-2.68019 6.62496,-3.06806 7.83559,-1.23868 0.75198,1.13632 1.03134,2.7025 1.0389,5.82427 0.005,2.16438 -0.0539,3.06831 -0.2541,3.88466 -0.55202,2.25088 -1.52869,3.10945 -3.32377,2.92182 -1.17072,-0.12236 -2.94983,-0.82469 -4.54909,-1.79583 -1.99518,-1.21156 -2.30386,-1.3513 -2.9849,-1.3513 -0.84645,0 -1.34206,0.4152 -1.72852,1.44809 -0.83179,2.22315 -0.75866,6.85614 0.21001,13.30543 0.12879,0.8575 0.23417,1.62816 0.23417,1.71257 0,0.18874 -14.63773,0.176 -16.27108,-0.0141 z"
         style="color:#000000;clip-rule:nonzero;display:inline;overflow:visible;visibility:visible;opacity:1;isolation:auto;mix-blend-mode:normal;color-interpolation:sRGB;color-interpolation-filters:linearRGB;solid-color:#000000;solid-opacity:1;fill:#9cb9a7;fill-opacity:1;fill-rule:evenodd;stroke:#ffffff;stroke-width:0.15247308;stroke-linecap:round;stroke-linejoin:round;stroke-miterlimit:4;stroke-dasharray:none;stroke-dashoffset:0;stroke-opacity:1;color-rendering:auto;image-rendering:auto;shape-rendering:auto;text-rendering:auto;enable-background:accumulate" />
    </g>
  </g>
</svg>
